<svg width="63" height="71" viewBox="0 0 63 71" fill="none" xmlns="http://www.w3.org/2000/svg">
<path d="M37.17 13.4999H24.84V14.5799H37.17V13.4999Z" fill="#9D5CDE"/>
<path fill-rule="evenodd" clip-rule="evenodd" d="M0 -6.86646e-05L2.63916 7.8899L0 14.5799L13 10L24.84 14.5799L28.5 21.5L24.84 55.8099L25.8698 58.2444L31.3892 70.3899L36.3892 58.2444L37.17 55.8099L33.8892 21.5L37.17 14.5799L50 10L63 14.5799L60.1392 7.8899L63 -6.86646e-05L50 6.00002L31.0552 9.13991L13 6.00002L0 -6.86646e-05ZM37.17 14.5799H24.84V13.4999H37.17V14.5799Z" fill="#9D5CDE"/>
<path d="M44.5 59.5L50 53.5L60.1392 41.5L63 14.5799L52.6392 35.3899L37.17 55.8099L36.3892 58.2444L31.3892 70.3899L25.8698 58.2444L24.84 55.8099L10.1392 35.3899L0 14.5799L2.63916 41.5L13 53.5L18 59.5L31.3892 70.3899L44.5 59.5Z" fill="#7E34C9"/>
<path fill-rule="evenodd" clip-rule="evenodd" d="M0 14.5799L10.1392 35.3899L24.84 55.8099L28.5 21.5L24.84 14.5799L13 10L0 14.5799ZM31.3892 70.3899L31.7546 70H30.9835L31.3892 70.3899ZM63 14.5799L52.6392 35.3899L37.17 55.8099L33.8892 21.5L37.17 14.5799L50 10L63 14.5799Z" fill="#833FC8"/>
</svg>
